<?xml version="1.0" encoding="UTF-8" standalone="no"?>
<svg xmlns="http://www.w3.org/2000/svg" width="1000" height="850" viewBox="0 0 1000 850">
<path
       id="pSD" fill="#b83025" stroke="#f7f6f3" stroke-width="1.4" opacity="0.95"
       d="m769.48,374.61 -1.59,2.53 -2.61,1.92 -0.36,3.41 -1.8,0.89 -2.48,-0.22 -6.41,1.14 -1.43,2.91 -4.14,4.47 -1.89,-1.11 -1.25,1.89 -0.96,3.59 -3.09,1.06 -2.2,7.66 -2.46,4.84 -2.54,1.8 -2.16,2.97 -0.24,3.51 1.6,3.1 2,2.44 0.19,3.14 -1.64,1.98 -0.27,2.75 0.8,0.83 5.7,-4.17 3,-1.32 2.81,-2.14 0.39,1.77 -4.64,3.84 -7.47,7.94 -0.5,2.28 -4.09,3.06 -0.5,2.47 -1.94,2.08 -0.14,1.92 5.74,1.19 3.67,2.44 2.09,0.9 0.39,2.82 2.52,1.68 3.14,-1.28 3.65,-0.2 1.63,-0.72 3.39,0.28 2.92,-1.61 0.67,-5.95 5.3,-2.22 2.52,0.88 3.84,3.93 1.34,3.43 1.39,0.96 2.68,-1.78 2.84,1.53 1.44,-0.21 2.75,-2.36 0.89,-2.47 2.9,-0.75 3.49,2.14 0.1,2.3 1.28,1 2.56,-1.58 1.7,-5.64 3.83,-0.89 1.36,-6.13 1.38,-2.51 3.34,-1.24 2.91,-0.23 0.49,-4.11 1.53,-2.28 2.06,-5.15 3.27,-1.01 0.72,-2.41 1.54,-4.1 2.38,-2.14 -2.77,-3.03 1.82,-1.8 2.65,1.32 3.12,0.48 2.6,-2.61 -0.25,-6.02 1.61,-2.94 2.32,-0.52 4.52,-3.76 3.31,-2.3 1.57,-1.19 2.67,-2.05 2.58,-3.36 2.8,0.51 1.34,-1.34 2.8,2.54 2.97,-2.29 -1.23,-3.19 1.03,-2.57 -0.24,-4.33 -3.03,-1.17 -2.78,1.52 -3.31,-1.52 -4.95,1.99 -4.11,2.05 -2.44,-1.07 -1.71,-1.95 -2.22,0.49 -4.37,-2.82 -3.18,-1.47 -3.9,1.47 -4.2,3.2 -0.76,4.04 -4.53,4.03 -0.76,4.29 -3.42,3.67 -7.22,-0.77 -5.48,-2.09 -0.77,-9.67 -3.17,-3.42 -4.77,-1.25 -2.97,-2.22 -2.63,0.95 -3.41,2.1 -3.18,-2.65z"/>
<path
		   id="ShandongW_839" fill="none" stroke="#f7f6f3" stroke-width="1.6" opacity="0.95"
		   d="m756.33,455.38 -1.94,1.18 -2.31,0.57 -2.32,-0.44 -1.43,0.86 h-4.16 l-2.03,1.32 h-1.15 l-2.03,-1.76 v-2.13 l-1.06,-1.14 -1.77,-0.45 -3,-2.47 -4.87,-0.62 -1.06,-0.44 0.18,-1.95 1.95,-2.03 0.44,-2.21 1.85,-1.94 2.12,-1.33 0.8,-2.47 2.03,-2.21 5.75,-6.01 2.83,-2.39 1.15,-0.8 0.1,-1.76 -0.7,-0.27 -2.48,2.12 -3.18,1.42 -3.89,2.82 -1.5,1.24 -0.97,-0.7 0.44,-2.92 1.5,-1.68 -0.18,-3.27 -2.56,-3.54 -0.97,-2.3 0.18,-3.53 2.38,-3.01 2.39,-1.68 1.94,-3.62 1.06,-2.47 0.62,-3.54 1.06,-2.92 3.01,-0.79 0.97,-3.8 1.33,-1.77 1.76,0.97 1.59,-1.06 1.33,-2.3 1.24,-0.97 1.5,-2.74 2.3,-0.88 4.06,-0.53 2.74,0.35 1.6,-1.15 0.17,-2.47 1.42,-1.95 1.32,-0.71 1.68,-2.6"/>
</svg>